<svg xmlns="http://www.w3.org/2000/svg" fill="none" shape-rendering="auto" viewBox="0 0 100 100"><metadata xmlns:dc="http://purl.org/dc/elements/1.1/" xmlns:dcterms="http://purl.org/dc/terms/" xmlns:rdf="http://www.w3.org/1999/02/22-rdf-syntax-ns#" xmlns:xsi="http://www.w3.org/2001/XMLSchema-instance"><rdf:RDF><rdf:Description><dc:title>Glass</dc:title><dc:creator>DiceBear</dc:creator><dc:source xsi:type="dcterms:URI">https://www.dicebear.com</dc:source><dcterms:license xsi:type="dcterms:URI">https://creativecommons.org/publicdomain/zero/1.0/</dcterms:license><dc:rights>„Glass” (https://www.dicebear.com) by „DiceBear”, licensed under „CC0 1.0” (https://creativecommons.org/publicdomain/zero/1.0/)</dc:rights></rdf:Description></rdf:RDF></metadata><mask id="viewboxMask"><rect width="100" height="100" x="0" y="0" fill="#fff" rx="0" ry="0"/></mask><g mask="url(#viewboxMask)"><rect width="100" height="100" x="0" y="0" fill="#7e47eb"/><g style="mix-blend-mode:screen" filter="url(#dicebearGlass-a)" opacity=".6"><g><g><path fill="#fff" d="M67 148.7H11V3.2h55.4q22.5 0 38.8 8.8a60 60 0 0 1 25.3 25q9 16.2 9 39 0 22.6-9 39a61 61 0 0 1-25 25 81 81 0 0 1-38.5 8.7m-16.5-33.5h15a44 44 0 0 0 18.5-3.5q7.6-3.5 11.6-12t4-23.8q0-15-4-23.7a24 24 0 0 0-12-12 47 47 0 0 0-19.2-3.5H50.5z" transform="translate(-25 -25) translate(9, -24) rotate(117 75 75)"/></g></g></g><g style="mix-blend-mode:screen" filter="url(#dicebearGlass-b)" opacity=".6"><g><g><path fill="#fff" d="M17.6 148.6V3h62.8q16.2 0 28.3 6 12 5.8 18.9 16.9a50 50 0 0 1 6.7 26.5q0 15.7-7 26.4A43 43 0 0 1 108 95q-12.5 5.5-29 5.5H41.3V69.9H71q7 0 11.8-1.7a15 15 0 0 0 7.6-5.6 17 17 0 0 0 2.7-10q0-6.3-2.7-10.2a15 15 0 0 0-7.6-5.8q-4.9-2-11.8-2H57v114zm85.2-66.8 36.4 66.8h-43L60.9 81.8z" transform="translate(-25 -25) translate(68, 66) rotate(-83 75 75)"/></g></g></g><defs><filter id="dicebearGlass-a" width="214" height="214" x="-57" y="-57" color-interpolation-filters="sRGB" filterUnits="userSpaceOnUse"><feFlood flood-opacity="0" result="BackgroundImageFix"/><feBlend in="SourceGraphic" in2="BackgroundImageFix" result="shape"/><feGaussianBlur result="effect1_foregroundBlur_25_7" stdDeviation="16"/></filter><filter id="dicebearGlass-b" width="214" height="214" x="-57" y="-57" color-interpolation-filters="sRGB" filterUnits="userSpaceOnUse"><feFlood flood-opacity="0" result="BackgroundImageFix"/><feBlend in="SourceGraphic" in2="BackgroundImageFix" result="shape"/><feGaussianBlur result="effect1_foregroundBlur_25_7" stdDeviation="16"/></filter></defs></g></svg>